<svg xmlns="http://www.w3.org/2000/svg" viewBox="0 0 188.324 188.324" fill="none">
  <defs>
    <!-- Enhanced multi-color gradient -->
    <linearGradient id="grad" x1="0%" y1="0%" x2="100%" y2="100%">
      <stop offset="0%" stop-color="rgba(255, 105, 180, 0.7)"/>  <!-- hot pink -->
      <stop offset="20%" stop-color="rgba(147, 112, 219, 0.7)"/> <!-- medium purple -->
      <stop offset="40%" stop-color="rgba(65, 105, 225, 0.7)"/>  <!-- royal blue -->
      <stop offset="60%" stop-color="rgba(0, 191, 255, 0.7)"/>   <!-- deep sky blue -->
      <stop offset="80%" stop-color="rgba(72, 209, 204, 0.7)"/>  <!-- medium turquoise -->
      <stop offset="100%" stop-color="rgba(50, 205, 50, 0.7)"/>  <!-- lime green -->
    </linearGradient>
    
    <!-- Glow effect -->
    <filter id="glow" x="-20%" y="-20%" width="140%" height="140%">
      <feGaussianBlur stdDeviation="4" result="blur"/>
      <feComposite in="SourceGraphic" in2="blur" operator="over"/>
    </filter>
  </defs>
  
  <!-- Horizontally mirrored pointer with enhanced styling -->
  <g transform="scale(-1,1) translate(-188.324,0)">
    <!-- Subtle shadow/glow layer -->
    <path d="M165.741,11.643c-1.401,0-2.803,0.346-4.055,0.989L18.516,86.789 c-3.339,1.722-5.223,5.375-4.697,9.092c0.529,3.729,3.351,6.713,7.022,7.445l59.061,11.71l16.154,55.225 c1.055,3.591,4.269,6.152,8.011,6.358h0.48c3.585,0,6.793-2.139,8.183-5.467l61.188-147.261c1.413-3.414,0.538-7.399-2.184-9.907 C170.098,12.475,167.965,11.643,165.741,11.643z"
          fill="rgba(255, 255, 255, 0.2)"
          filter="url(#glow)"
          transform="translate(2,2)"/>
          
    <!-- Main pointer shape -->
    <path d="M165.741,11.643c-1.401,0-2.803,0.346-4.055,0.989L18.516,86.789 c-3.339,1.722-5.223,5.375-4.697,9.092c0.529,3.729,3.351,6.713,7.022,7.445l59.061,11.71l16.154,55.225 c1.055,3.591,4.269,6.152,8.011,6.358h0.48c3.585,0,6.793-2.139,8.183-5.467l61.188-147.261c1.413-3.414,0.538-7.399-2.184-9.907 C170.098,12.475,167.965,11.643,165.741,11.643z"
          fill="url(#grad)"
          stroke="#ffffff"
          stroke-width="3"
          stroke-linejoin="round"
          stroke-linecap="round"/>
  </g>
</svg>
